<svg width="36" height="16" viewBox="0 0 36 16" fill="none" xmlns="http://www.w3.org/2000/svg">
<path d="M17.9212 15.7568L16.1638 12.4263L14.4631 9.09582C15.682 6.75737 16.7591 4.73072 17.9637 2.4348L21.4643 9.09582L19.6644 12.4263L17.9212 15.7568Z" fill="#0C0B10"/>
<path d="M35.5657 4.40462L35.3956 4.50383L35.2256 4.61721L35.0413 4.71642L34.8713 4.8298L34.687 4.929L34.5169 5.02821L34.3469 5.12742L34.1626 5.22662L33.9784 5.32583L33.8083 5.41086L33.6241 5.51007L33.4398 5.60928L33.2698 5.70848L33.0855 5.79352L32.9013 5.89272L32.7171 5.97776L32.5328 6.06279L32.3486 6.14783L32.1643 6.24703L32.0651 6.28955L30.4353 2.73228L30.5062 2.70394L30.6762 2.63308L30.8321 2.54804L31.0022 2.46301L31.1581 2.39214L31.314 2.30711L31.4841 2.22208L31.64 2.13704L31.7959 2.06618L31.9517 1.98115L32.1218 1.88194L32.2777 1.7969L32.4336 1.71187L32.5895 1.62684L32.7454 1.5418L32.9013 1.4426L33.0572 1.35756L33.2131 1.27253L33.369 1.17332L33.5249 1.07411L33.6666 0.989079L35.7074 4.31959L35.5657 4.40462Z" fill="#0C0B10"/>
<path d="M27.9416 7.87712L27.7432 7.93381L27.5448 7.9905L27.3464 8.06136L27.1479 8.11805L26.9495 8.16057L26.7369 8.21726L26.5385 8.27395L26.3401 8.33064L26.1417 8.37316L25.9291 8.42985L25.7307 8.48654L25.5323 8.52905L25.3197 8.57157L25.1213 8.61409L24.9087 8.67078L24.7103 8.71329L24.4977 8.74164L24.2993 8.78416L24.1859 8.8125L23.4773 4.97178L23.5623 4.95761L23.7466 4.91509L23.9308 4.88675L24.1009 4.84423L24.2851 4.80172L24.4694 4.7592L24.6536 4.71668L24.8237 4.67416L25.0079 4.64582L25.1922 4.58913L25.3622 4.54661L25.5465 4.5041L25.7307 4.44741L25.9008 4.40489L26.0708 4.36237L26.2551 4.30568L26.4252 4.24899L26.6094 4.20648L26.7795 4.14979L26.9637 4.0931L27.0346 4.06475L28.2109 7.79209L28.14 7.80626L27.9416 7.87712Z" fill="#0C0B10"/>
<path d="M11.7563 8.82665L11.5437 8.78413L11.3312 8.74161L11.1327 8.71327L10.9202 8.67075L10.7217 8.61406L10.5092 8.57154L10.3107 8.52903L10.0982 8.48651L9.89975 8.42982L9.70133 8.37313L9.50292 8.33062L9.29033 8.27392L9.09192 8.21724L8.89351 8.16055L8.69509 8.11803L8.49668 8.06134L8.29827 7.99048L8.08568 7.93379L7.90144 7.8771L7.81641 7.84875L8.99271 4.12142L9.0494 4.14976L9.23364 4.20645L9.40371 4.24897L9.57378 4.30566L9.75802 4.36235L9.94226 4.40486L10.1123 4.44738L10.2966 4.50407L10.4666 4.54659L10.6509 4.58911L10.821 4.64579L11.0052 4.67414L11.1894 4.71666L11.3737 4.75917L11.5437 4.80169L11.728 4.84421L11.9122 4.88673L12.0965 4.91507L12.2807 4.95759L12.4508 4.98593L12.55 5.0001L11.8414 8.84082L11.7563 8.82665Z" fill="#0C0B10"/>
<path d="M3.86246 6.3325L3.67822 6.24746L3.49397 6.14825L3.30973 6.06322L3.12549 5.97819L2.94125 5.89315L2.75701 5.79394L2.57277 5.70891L2.38853 5.6097L2.21846 5.5105L2.03422 5.41129L1.84998 5.32626L1.67991 5.22705L1.49567 5.12784L1.3256 5.02864L1.14136 4.92943L0.97129 4.83022L0.787049 4.71684L0.61698 4.61764L0.446912 4.50426L0.291016 4.41922L2.34601 1.08871L2.47356 1.17375L2.62946 1.27295L2.77118 1.35799L2.92708 1.44302L3.08297 1.54223L3.23887 1.62726L3.40894 1.7123L3.56484 1.79733L3.72073 1.88237L3.87663 1.98157L4.03252 2.06661L4.18842 2.13747L4.35849 2.2225L4.51439 2.30754L4.67028 2.39257L4.84035 2.46343L4.99625 2.54847L5.16632 2.6335L5.32221 2.70437L5.49228 2.77523L5.57731 2.81774L3.94749 6.36084L3.86246 6.3325Z" fill="#0C0B10"/>
</svg>
