<svg width="215" height="113" viewBox="0 0 215 113" fill="none" xmlns="http://www.w3.org/2000/svg">
<path d="M126.48 44.4158V44.561V44.7061V44.8513V44.9965L126.626 45.1416V45.2868V45.4319V45.5771L126.773 45.7222V45.8674V46.0125V46.1577V46.3028V46.448V46.5931H126.919V46.7383V46.8834L129.704 46.5931V46.448V46.3028V46.1577V46.0125V45.8674L129.558 45.7222V45.5771V45.4319V45.2868V45.1416V44.9965L129.411 44.8513V44.7061V44.561V44.4158L129.264 44.2707V44.1255V43.9804V43.8352V43.6901L129.118 43.5449L126.333 44.2707V44.4158H126.48Z" fill="#1D1D1B"/>
<path d="M128.092 40.497V40.3519V40.2067L127.945 40.0616V39.9164L127.799 39.7713V39.6261V39.481L127.652 39.3358V39.1907H127.506V39.0455L127.359 38.9003V38.7552L127.213 38.61V38.4649V38.3197L127.066 38.1746V38.0294H126.919V37.8843L124.428 39.3358V39.481L124.575 39.6261L124.721 39.7713V39.9164V40.0616L124.868 40.2067L125.014 40.3519V40.497V40.6422L125.161 40.7873V40.9325L125.307 41.0776V41.2228V41.3679H125.454V41.5131V41.6583L125.6 41.8034L128.238 40.6422L128.092 40.497Z" fill="#1D1D1B"/>
<path d="M125.158 35.2715L125.011 35.1264V34.9812L124.865 34.8361L124.718 34.6909L124.572 34.5458V34.4006L124.425 34.2555H124.278V34.1103L124.132 33.9652L123.985 33.82L123.839 33.6749L123.692 33.5297V33.3845H123.546L123.399 33.2394V33.0942H123.252L121.201 34.9812V35.1264H121.347L121.494 35.2715V35.4167H121.64V35.5618L121.787 35.707H121.933V35.8521L122.08 35.9973L122.227 36.1424L122.373 36.2876V36.4328L122.52 36.5779L122.666 36.7231L122.813 36.8682L122.959 37.0134L125.304 35.4167L125.158 35.2715Z" fill="#1D1D1B"/>
<path d="M121.056 30.9176H120.909L120.763 30.7725L120.616 30.6273L120.47 30.4822H120.323L120.177 30.337L120.03 30.1918L119.883 30.0467H119.737L119.59 29.9015L119.444 29.7564H119.297L119.151 29.6112L119.004 29.4661L118.858 29.3209H118.711L118.564 29.1758L117.099 31.6434L117.245 31.7885H117.392L117.539 31.9337L117.685 32.0788H117.832V32.224H117.978L118.125 32.3691H118.271V32.5143H118.418L118.564 32.6595L118.711 32.8046L118.858 32.9498L119.004 33.0949H119.151V33.2401H119.297L121.056 31.0628V30.9176Z" fill="#1D1D1B"/>
<path d="M112.554 29.4664L112.701 29.6116H112.848L112.994 29.7567H113.141H113.287L113.434 29.9019H113.58L113.727 30.047H113.873H114.02V30.1922H114.167H114.313L114.46 30.3373H114.606L115.925 27.7246H115.779H115.632L115.486 27.5794H115.339L115.192 27.4343H115.046H114.899L114.753 27.2891H114.606H114.46V27.144H114.313L114.167 26.9988H114.02H113.873L113.727 26.8536H113.58H113.434L113.287 26.7085H113.141H112.994L112.115 29.4664H112.261H112.408H112.554Z" fill="#1D1D1B"/>
<path d="M107.134 28.4498L107.28 28.595H107.427H107.573H107.72H107.866H108.013H108.16H108.306H108.453H108.599L108.746 28.7401H108.892H109.039H109.185H109.332H109.479L110.065 25.9822H109.918H109.772H109.625L109.479 25.837H109.332H109.185H109.039H108.892H108.746H108.599L108.453 25.6919H108.306H108.16H108.013H107.866H107.72H107.573H107.427H107.28H107.134H106.987L106.841 28.4498H106.987H107.134Z" fill="#1D1D1B"/>
<path d="M145.676 44.5612V44.8515V44.9966V45.1418V45.4321V45.5772V45.7224L145.529 46.0127V46.1578V46.4482V46.5933V46.8836L145.383 47.0288V47.3191H150.073V47.0288V46.7385L150.219 46.5933V46.303V46.0127V45.7224V45.5772V45.2869V44.9966L150.366 44.7063V44.5612L145.676 44.416V44.5612Z" fill="#1D1D1B"/>
<path d="M144.947 35.998V36.2883V36.5786L145.093 36.7238V37.0141V37.3044L145.24 37.4495V37.7398V38.0301V38.1753L145.386 38.4656V38.7559V38.9011V39.1914V39.4817L145.533 39.772V39.9171V40.2074L150.076 39.772V39.4817V39.1914V38.9011L149.93 38.6108V38.3204V38.1753V37.885L149.783 37.5947V37.3044V37.0141V36.7238L149.636 36.4335V36.1432V35.998L149.49 35.7077V35.4174L149.343 35.1271V34.9819L144.8 35.998H144.947Z" fill="#1D1D1B"/>
<path d="M142.159 27.7244L142.305 28.0147V28.1598L142.452 28.4502L142.598 28.5953V28.8856L142.745 29.0308L142.891 29.3211V29.4662L143.038 29.7565L143.185 29.9017V30.192L143.331 30.4823V30.6274L143.478 30.9178V31.0629L143.624 31.3532V31.4984L143.771 31.7887L148.168 30.3371L148.021 30.192V29.9017L147.874 29.6114L147.728 29.3211V29.1759L147.581 28.8856V28.5953L147.435 28.305L147.288 28.1598V27.8695L147.142 27.5792L146.995 27.2889V27.1438L146.849 26.8535L146.702 26.5632L146.555 26.418V26.1277L146.409 25.8374L142.159 27.7244Z" fill="#1D1D1B"/>
<path d="M137.766 20.3219L137.912 20.6122L138.059 20.7573L138.205 20.9025L138.352 21.1928L138.498 21.3379L138.645 21.4831L138.792 21.7734L138.938 21.9186L139.085 22.0637L139.231 22.354V22.4992L139.378 22.7895L139.524 22.9346L139.671 23.0798L139.817 23.3701L139.964 23.5152L140.111 23.6604V23.9507L144.068 21.6282V21.3379L143.921 21.1928L143.774 20.9025L143.628 20.7573L143.481 20.467L143.335 20.1767L143.188 20.0316L143.042 19.7413L142.895 19.5961L142.749 19.3058L142.602 19.1606L142.455 18.8703L142.309 18.7252L142.162 18.4349L142.016 18.2897L141.869 17.9994L141.576 17.8543L141.43 17.7091V17.564L137.766 20.3219Z" fill="#1D1D1B"/>
<path d="M132.047 14.226L132.34 14.5163L132.487 14.6615L132.633 14.8066L132.78 14.9518L132.926 15.0969L133.219 15.2421L133.366 15.3872L133.513 15.5324L133.659 15.6775L133.806 15.9678L133.952 16.113L134.245 16.2581L134.392 16.4033L134.538 16.5484L134.685 16.6936L134.832 16.9839H134.978L138.349 13.9357L138.202 13.7905L138.056 13.6454L137.909 13.3551L137.616 13.2099L137.47 13.0648L137.323 12.7745L137.03 12.6293L136.883 12.4842L136.737 12.339L136.59 12.0487L136.297 11.9035L136.151 11.7584L136.004 11.6132L135.711 11.3229L135.564 11.1778L135.418 11.0326L135.125 10.8875L134.978 10.7423L134.832 10.5972L131.754 14.0808H131.9L132.047 14.226Z" fill="#1D1D1B"/>
<path d="M124.868 9.29L125.014 9.43515H125.307L125.454 9.58031L125.747 9.72546L125.894 9.87061L126.04 10.0158L126.333 10.1609H126.48L126.773 10.3061L126.92 10.4512L127.066 10.5964L127.359 10.7415L127.506 10.8867L127.799 11.0318L127.946 11.177L128.092 11.3221H128.385L130.877 7.54817L130.73 7.40301L130.437 7.25786L130.29 7.11271L129.997 6.96755L129.851 6.8224L129.558 6.67725L129.411 6.5321L129.118 6.38694H128.971L128.678 6.24179L128.385 6.09664L128.239 5.95148L127.946 5.80633L127.799 5.66118L127.506 5.51603L127.213 5.37087L127.066 5.22572L126.773 5.08057L124.575 9.14485L124.868 9.29Z" fill="#1D1D1B"/>
<path d="M116.952 6.09593H117.245L117.392 6.24108H117.685L117.978 6.38624H118.125L118.418 6.53139H118.565L118.858 6.67654H119.151L119.297 6.8217L119.59 6.96685H119.737L120.03 7.112H120.177L120.47 7.25715H120.616L122.375 3.04772H122.082L121.935 2.90257L121.642 2.75741H121.349L121.056 2.61226L120.909 2.46711H120.616L120.323 2.32196H120.03L119.884 2.1768L119.59 2.03165H119.297L119.004 1.8865H118.858L118.565 1.74134H118.271L117.978 1.59619H117.685L116.513 5.95078H116.806L116.952 6.09593Z" fill="#1D1D1B"/>
<path d="M108.454 4.64489H108.601H108.894H109.187H109.48H109.627H109.92L110.213 4.79005H110.36H110.653H110.946H111.092L111.386 4.9352H111.679H111.972H112.118L112.265 5.08035L112.998 0.580612L112.851 0.435459H112.558H112.265H112.118L111.825 0.290306H111.532H111.239H110.946L110.653 0.145153H110.36H110.067H109.773H109.48L109.187 0H109.041H108.748H108.454H108.161L107.868 4.49974L108.161 4.64489H108.454Z" fill="#1D1D1B"/>
<path d="M136.297 44.9969V45.142L136.443 45.4324V45.5775V45.7227V46.013V46.1581V46.3033V46.5936L136.59 46.7387V46.8839V47.1742V47.3193H140.547V47.029V46.8839V46.5936V46.4484V46.1581V46.013V45.7227L140.4 45.5775V45.2872V45.142V44.8517V44.7066L140.254 44.4163V44.2711V44.126L136.297 44.8517V44.9969Z" fill="#1D1D1B"/>
<path d="M134.393 37.8855V38.1758L134.54 38.321V38.4661L134.687 38.6113V38.7564L134.833 39.0467V39.1919L134.98 39.3371V39.4822V39.6274L135.126 39.9177V40.0628L135.273 40.208V40.3531V40.6434L135.419 40.7886V40.9337V41.0789L139.376 40.0628V39.7725L139.23 39.6274V39.3371L139.083 39.1919V39.0467L138.937 38.7564V38.6113L138.79 38.4661V38.1758L138.644 38.0307V37.7404V37.5952L138.497 37.4501L138.35 37.1598V37.0146L138.204 36.8695V36.5791L138.057 36.434V36.2888L137.911 35.9985L134.247 37.5952V37.7404L134.393 37.8855Z" fill="#1D1D1B"/>
<path d="M130.581 31.353L130.728 31.4981L130.874 31.6433L131.021 31.7884V31.9336L131.168 32.0788L131.314 32.2239V32.3691L131.461 32.5142L131.607 32.6594L131.754 32.8045V33.0948L131.9 33.24L132.047 33.3851V33.5303L132.193 33.6754L132.34 33.8206V33.9657L132.487 34.1109V34.256L136.004 32.2239V32.0788L135.857 31.9336L135.711 31.7884V31.6433L135.564 31.353L135.418 31.2078L135.271 31.0627L135.125 30.9175V30.6272L134.978 30.4821L134.832 30.3369L134.685 30.1918V30.0466L134.538 29.9015L134.392 29.6112L134.245 29.466L134.099 29.3208L133.952 29.1757V29.0305L133.806 28.8854L133.659 28.7402L130.435 31.0627L130.581 31.2078V31.353Z" fill="#1D1D1B"/>
<path d="M130.73 25.4019L130.583 25.2568L130.437 25.1116L130.29 24.9665L130.144 24.8213L129.997 24.6762L129.851 24.531L129.704 24.3859L129.558 24.2407L129.411 24.0956L129.264 23.9504L129.118 23.8053L128.971 23.6601L128.825 23.515L128.678 23.3698L128.532 23.2247L128.385 23.0795L128.239 22.9343L127.945 22.7892L127.799 22.644L125.161 25.6923L125.307 25.8374L125.454 25.9826H125.601L125.747 26.1277L125.894 26.2729L126.04 26.418L126.187 26.5632L126.333 26.7083H126.48L126.626 26.8535V26.9986L126.773 27.1438L126.92 27.2889L127.066 27.4341L127.213 27.5792H127.359L127.506 27.7244L127.652 27.8695L127.799 28.0147L127.945 28.1598V28.305L130.877 25.4019H130.73Z" fill="#1D1D1B"/>
<path d="M122.08 18.8693H121.933L121.64 18.7242L121.494 18.579H121.347L121.201 18.4339L120.908 18.2887H120.761L120.614 18.1436H120.468L118.709 21.7724H118.856L119.002 21.9175H119.149L119.295 22.0627H119.589L119.735 22.2078L119.882 22.353H120.028L120.175 22.4981H120.321L120.468 22.6433L120.614 22.7884H120.908L121.054 22.9336H121.201L121.347 23.0788L121.494 23.2239H121.64L121.787 23.3691L121.933 23.5142H122.08L124.278 20.1757L124.132 20.0305L123.839 19.8854H123.692L123.546 19.7402L123.399 19.5951H123.252L122.959 19.4499L122.813 19.3048L122.666 19.1596H122.373L122.227 19.0145L122.08 18.8693Z" fill="#1D1D1B"/>
<path d="M112.701 15.6769L112.408 15.5317H112.261L111.529 19.4509H111.675L111.822 19.596H112.115H112.261H112.408L112.554 19.7412H112.848H112.994L113.141 19.8863H113.287H113.58L113.727 20.0315H113.873H114.02L114.313 20.1766H114.46H114.606L114.753 20.3218H115.046H115.192V20.4669L116.512 16.5478H116.365H116.218L115.925 16.4027H115.779L115.632 16.2575H115.339H115.192L114.899 16.1124H114.753H114.606L114.313 15.9672H114.167L113.873 15.822H113.727H113.434L113.287 15.6769H113.141H112.848H112.701Z" fill="#1D1D1B"/>
<path d="M112.554 96.6719L112.261 96.9622L112.115 97.2525L111.968 97.3976L111.675 97.688L111.529 97.9783L111.382 98.1234L111.089 98.4137L110.942 98.704L110.649 98.8492L110.503 99.1395L110.356 99.2846L110.21 99.5749L109.916 99.8652L109.77 100.01L109.623 100.301L113.141 103.059L113.287 102.913L113.58 102.623L113.727 102.478L113.873 102.188L114.167 102.043L114.313 101.752L114.46 101.462L114.753 101.317L114.899 101.026L115.046 100.881L115.339 100.591L115.486 100.301L115.632 100.156L115.925 99.8652L116.072 99.5749L112.554 96.6719Z" fill="#1D1D1B"/>
<path d="M118.27 89.8499L117.977 90.1402L117.83 90.2853L117.537 90.5756L117.391 90.8659L117.097 91.1562L116.951 91.4466L116.658 91.5917L116.511 91.882L116.365 92.1723L116.072 92.4626L115.925 92.7529L115.632 92.8981L115.485 93.1884L119.003 96.0914L119.149 95.8011L119.442 95.656L119.589 95.3657L119.882 95.0754L120.029 94.7851L120.322 94.6399L120.468 94.3496L120.761 94.0593L120.908 93.769L121.201 93.4787L121.348 93.3335L121.641 93.0432L121.787 92.7529L121.934 92.6078L118.417 89.5596L118.27 89.8499Z" fill="#1D1D1B"/>
<path d="M105.815 22.0633C107.134 19.5957 108.013 17.8539 109.479 15.2411L107.72 11.7575L105.962 8.41895L104.056 11.9026L102.298 15.3863C103.47 17.7087 104.643 19.7409 105.815 22.0633Z" fill="#1D1D1B"/>
<path d="M83.3879 11.321H83.5344L83.681 11.1759L83.9741 11.0307L84.1206 10.8856L84.4138 10.7404L84.5603 10.5953L84.7069 10.4501L85 10.305L85.1465 10.1598H85.2931L85.5862 10.0147L85.7328 9.8695L86.0259 9.72435L86.1724 9.5792L86.4656 9.43404H86.6121L86.7587 9.28889H86.9052L84.7069 5.22461H84.5603L84.4138 5.36976L84.1206 5.51492L83.9741 5.66007L83.681 5.80522L83.3879 5.95037L83.2413 6.09553L82.9482 6.24068L82.8016 6.38583H82.5085L82.362 6.53099L82.0688 6.67614L81.9223 6.82129L81.6292 6.96644L81.3361 7.1116L81.1895 7.25675L80.8964 7.4019L80.7498 7.54706L80.6033 7.69221L83.2413 11.4662L83.3879 11.321Z" fill="#1D1D1B"/>
<path d="M91.8894 33.5305H92.0359L92.1825 33.3853L92.329 33.2401H92.4756V33.095H92.6222L92.7687 32.9498H92.9153V32.8047L93.0618 32.6595H93.2084V32.5144H93.3549L93.5015 32.3692L93.6481 32.2241H93.7946L93.9412 32.0789L94.0877 31.9338L92.4756 29.6113L92.329 29.7565H92.1825V29.9016H92.0359L91.8894 30.0468H91.7428L91.5963 30.1919V30.3371H91.4497L91.3031 30.4822H91.1566L91.01 30.6274V30.7726H90.8635L90.7169 30.9177H90.5704V31.0629L90.4238 31.208H90.2772L90.1307 31.3532V31.4983H89.9841L91.8894 33.6756V33.5305Z" fill="#1D1D1B"/>
<path d="M89.8409 23.3702L89.9875 23.225H90.1341L90.2806 23.0799L90.4272 22.9347H90.7203L90.8668 22.7896H91.0134L91.16 22.6444L91.3065 22.4993H91.4531L91.5996 22.3541H91.7462L92.0393 22.2089L92.1859 22.0638H92.3324L92.479 21.9186H92.6255L92.7721 21.7735H92.9186L93.0652 21.6283L91.4531 17.9995L91.3065 18.1447H91.16L90.8668 18.2898H90.7203L90.5737 18.435L90.2806 18.5801H90.1341L89.9875 18.7253L89.8409 18.8704H89.5478L89.4013 19.0156L89.2547 19.1607H89.1082L88.815 19.3059L88.6685 19.451L88.5219 19.5962H88.3754L88.0822 19.7413L87.9357 19.8865H87.7891L87.6426 20.0317L89.6944 23.5153L89.8409 23.3702Z" fill="#1D1D1B"/>
<path d="M71.5194 23.9515L71.6659 23.6612V23.5161L71.8125 23.3709L71.959 23.0806L72.1056 22.9355L72.2522 22.7903L72.3987 22.5L72.5453 22.3549L72.6918 22.0645L72.8384 21.9194V21.7742L72.9849 21.4839L73.1315 21.3388L73.2781 21.1936L73.4246 20.9033L73.5712 20.7582L73.7177 20.613L73.8643 20.4679L70.0538 17.71V17.8551L69.9072 18.0003L69.7607 18.2906L69.6141 18.4357L69.4676 18.726L69.321 18.8712L69.0279 19.1615L68.8813 19.3066L68.7348 19.5969L68.5882 19.7421L68.4417 20.0324L68.2951 20.1776L68.1486 20.4679L68.002 20.7582V20.9033L67.8554 21.1936L67.7089 21.3388L67.5623 21.6291L67.4158 21.7742L71.3728 24.0967L71.5194 23.9515Z" fill="#1D1D1B"/>
<path d="M76.6484 17.1279L76.795 16.9828L76.9415 16.6925L77.0881 16.5473L77.2346 16.4022L77.5277 16.257L77.6743 16.1119L77.8209 15.9667L77.9674 15.6764L78.114 15.5313L78.2605 15.3861L78.5536 15.241L78.7002 15.0958L78.8468 14.9506L78.9933 14.8055L79.1399 14.6603L79.433 14.5152L79.5795 14.2249L79.7261 14.0797L76.795 10.7412H76.6484L76.5018 10.8864L76.3553 11.0315L76.0622 11.1767L75.9156 11.3218L75.7691 11.6121L75.4759 11.7573L75.3294 11.9024L75.1828 12.0476L74.8897 12.3379L74.7432 12.483L74.5966 12.6282L74.45 12.7734L74.1569 13.0637L74.0104 13.2088L73.8638 13.354L73.5707 13.6443L73.4241 13.7894L73.2776 13.9346V14.0797L76.6484 17.1279Z" fill="#1D1D1B"/>
<path d="M83.9759 28.0143V27.8692L84.1225 27.724L84.269 27.5789H84.4156L84.5621 27.4337L84.7087 27.2886L84.8552 27.1434L85.0018 26.9983L85.1483 26.8531L85.2949 26.708H85.4415L85.588 26.5628L85.7346 26.4177L85.8811 26.2725V26.1274L86.0277 25.9822H86.1743L86.3208 25.8371L86.4674 25.6919L86.6139 25.5467L84.1225 22.4985L83.9759 22.6437H83.8293L83.6828 22.7888L83.5362 22.934L83.3897 23.0791L83.2431 23.2243L83.0966 23.3695L82.8034 23.5146L82.6569 23.6598L82.5103 23.8049L82.3638 23.9501L82.2172 24.0952L82.0706 24.2404L81.9241 24.3855L81.7775 24.5307L81.631 24.6758L81.4844 24.821L81.3379 24.9661L81.1913 25.1113L81.0447 25.2564H80.8982L83.8293 28.1595L83.9759 28.0143Z" fill="#1D1D1B"/>
<path d="M91.0117 7.40231L91.1582 7.25716L91.4514 7.112H91.5979L91.891 6.96685H92.1842L92.3307 6.8217L92.6238 6.67654H92.7704L93.0635 6.53139H93.21L93.5032 6.38624H93.7963L93.9428 6.24109H94.236L94.3825 6.09593H94.6756L94.9687 5.95078L93.7963 1.59619H93.6497L93.3566 1.74134H93.0635L92.9169 1.8865H92.6238L92.3307 2.03165H92.0376L91.891 2.1768L91.5979 2.32196H91.3048L91.0117 2.46711H90.8651L90.572 2.61226L90.2789 2.75741H89.9858L89.8392 2.90257L89.5461 3.04772H89.253L89.1064 3.19287L90.8651 7.40231H91.0117Z" fill="#1D1D1B"/>
<path d="M99.2201 5.08035L99.5132 4.9352H99.8063H99.9529H100.246L100.539 4.79005H100.686H100.979H101.272H101.565L101.712 4.64489H102.005H102.298H102.444H102.737H103.031H103.324H103.47H103.617L103.324 0H103.031H102.737H102.444L102.151 0.145153H101.858H101.565H101.272H100.979L100.686 0.290306H100.393H100.099H99.9529L99.6598 0.435459H99.3667H99.0735H98.7804L98.4873 0.580612L99.2201 5.08035Z" fill="#1D1D1B"/>
<path d="M101.713 28.8853H101.86H102.006L102.153 28.7401H102.299H102.446H102.592H102.739H102.886L103.032 28.595H103.179H103.325H103.472H103.618H103.765H103.911H104.058H104.205L103.911 25.6919H103.765H103.618H103.472H103.325H103.179L103.032 25.837H102.886H102.739H102.592H102.446H102.299H102.153L102.006 25.9822H101.86H101.713H101.567H101.42H101.273L101.127 26.1274H100.98H100.834L101.567 28.8853H101.713Z" fill="#1D1D1B"/>
<path d="M96.7272 20.3218H96.8738L97.0203 20.1766H97.1669H97.46L97.6066 20.0315H97.7531H97.8997L98.1928 19.8863H98.3393H98.4859L98.6325 19.7412H98.9256H99.0721L99.2187 19.596H99.3653H99.6584H99.8049L99.9515 19.4509H100.245L99.5118 15.5317H99.2187L99.0721 15.6769H98.779H98.6325H98.3393L98.1928 15.822H97.8997H97.7531L97.6066 15.9672H97.3135L97.1669 16.1124H96.8738H96.7272L96.4341 16.2575H96.2875H96.141L95.8479 16.4027H95.7013L95.4082 16.5478L96.5807 20.3218H96.7272Z" fill="#1D1D1B"/>
<path d="M61.4089 45.2873V45.5776V45.7227V46.0131V46.3034L61.5555 46.5937V46.7388V47.0291V47.3194H66.2453V47.0291V46.884L66.0988 46.5937V46.4485V46.1582V46.0131V45.8679V45.5776V45.4324L65.9522 45.1421V44.997V44.8518V44.5615L61.4089 44.8518V44.997V45.2873Z" fill="#1D1D1B"/>
<path d="M96.4357 30.6269H96.5823V30.4817H96.7288H96.8754L97.0219 30.3366H97.1685L97.3151 30.1914H97.4616H97.6082L97.7547 30.0463H97.9013L98.0478 29.9011H98.1944H98.3409L98.4875 29.756H98.6341L98.7806 29.6108H98.9272L97.9013 26.998H97.7547H97.6082L97.4616 27.1432H97.3151L97.1685 27.2884H97.0219H96.8754L96.7288 27.4335H96.5823H96.4357L96.2891 27.5787H96.1426L95.996 27.7238H95.8495L95.7029 27.869H95.5564L95.4098 28.0141H95.2633L95.1167 28.1593L96.4357 30.6269Z" fill="#1D1D1B"/>
<path d="M86.7618 34.8365V34.9817L86.6153 35.1268L86.4687 35.272L86.3222 35.4171V35.5623L86.1756 35.7074V35.8526H86.0291V35.9977L88.374 37.5944L88.5205 37.4493V37.3041L88.6671 37.159L88.8136 37.0138V36.8687H88.9602V36.7235L89.1068 36.5784L89.2533 36.4332V36.288L89.3999 36.1429H89.5464V35.9977H89.693V35.8526L89.8395 35.7074L89.9861 35.5623L87.7877 33.6753V33.8204H87.6412L87.4946 33.9656V34.1108L87.3481 34.2559H87.2015V34.4011L87.055 34.5462L86.9084 34.6914L86.7618 34.8365Z" fill="#1D1D1B"/>
<path d="M85.8842 42.2392L86.0308 42.094V41.9489L86.1773 41.8037V41.6586V41.5134L86.3239 41.3683V41.2231L86.4704 41.0779V40.9328V40.7876H86.617V40.6425V40.4973L86.7635 40.3522V40.207H86.9101V40.0619V39.9167L84.4186 38.6104L84.2721 38.7555V38.9007L84.1255 39.0458V39.191L83.979 39.3361V39.4813L83.8324 39.6264V39.7716V39.9167L83.6858 40.0619V40.207L83.5393 40.3522V40.4973V40.6425L83.3927 40.7876V40.9328L83.2462 41.0779V41.2231L83.0996 41.3683L85.8842 42.3843V42.2392Z" fill="#1D1D1B"/>
<path d="M101.565 100.591L101.419 100.301L101.272 100.01L100.979 99.8653L100.832 99.575L100.686 99.4299L100.393 99.1396L100.246 98.8493L100.1 98.7041L99.953 98.4138L99.6599 98.1235L99.5133 97.9783L99.3668 97.688L99.0737 97.3977L98.9271 97.2526L98.7806 97.1074L95.2632 100.01L95.5563 100.301L95.7029 100.591L95.8494 100.736L96.1425 101.027L96.2891 101.317L96.4356 101.462L96.7288 101.752L96.8753 102.043L97.0219 102.188L97.315 102.478L97.4615 102.623L97.6081 102.914L97.7547 103.204L98.0478 103.349V103.494L101.712 100.736L101.565 100.591Z" fill="#1D1D1B"/>
<path d="M95.8499 93.4788L95.5568 93.1885L95.4102 92.8982L95.2637 92.753L94.9705 92.4627L94.824 92.1724L94.5309 91.8821L94.3843 91.737L94.0912 91.4466L93.9446 91.1563L93.6515 90.866L93.505 90.5757L93.3584 90.4306L93.0653 90.1403V89.9951L89.4014 92.8982L89.5479 93.0433L89.6945 93.1885L89.9876 93.4788L90.1342 93.7691L90.2807 94.0594L90.5738 94.3497L90.7204 94.4949L91.0135 94.7852L91.1601 95.0755L91.4532 95.3658L91.5997 95.6561L91.8928 95.8012L92.0394 96.0915L92.186 96.3819H92.3325L95.8499 93.6239V93.4788Z" fill="#1D1D1B"/>
<path d="M66.0987 40.2078L66.2452 39.9175V39.7723V39.482V39.1917V38.9014L66.3918 38.7563V38.466V38.1756V38.0305V37.7402L66.5384 37.4499V37.3047V37.0144L66.6849 36.7241V36.579V36.2887L66.8315 36.1435L62.2882 35.1274L62.1417 35.4177V35.7081V35.9984L61.9951 36.1435V36.4338V36.7241L61.8485 37.0144V37.3047V37.595V37.8853L61.702 38.1756V38.3208V38.6111V38.9014L61.5554 39.1917V39.482V39.7723V39.9175L66.0987 40.3529V40.2078Z" fill="#1D1D1B"/>
<path d="M100.979 107.123L101.125 107.268L105.815 112.929L110.651 107.123L105.815 102.768L100.979 107.123Z" fill="#1D1D1B"/>
<path d="M105.815 89.5596L103.763 92.1723L101.711 94.7851L103.763 97.543L105.815 100.156L107.867 97.543L109.919 94.7851L107.867 92.1723L105.962 89.5596H105.815Z" fill="#1D1D1B"/>
<path d="M71.3742 43.9805V44.2708V44.4159V44.7062L71.2276 44.8514V45.1417V45.2868V45.5772V45.7223V46.0126L71.0811 46.1578V46.4481V46.5932V46.8835V47.0287V47.319H75.0381L75.1846 47.1738V46.8835V46.7384V46.5932V46.3029V46.1578V46.0126V45.7223L75.3312 45.5772V45.432V45.1417V44.9965V44.8514L75.4778 44.5611L71.3742 43.9805Z" fill="#1D1D1B"/>
<path d="M67.8572 31.7895L68.0037 31.4992V31.3541L68.1503 31.0637V30.9186L68.2968 30.6283L68.4434 30.4831V30.1928L68.5899 29.9025V29.7574L68.7365 29.4671L68.8831 29.3219V29.0316L69.0296 28.8865V28.5962L69.1762 28.451L69.3227 28.1607V28.0155L69.4693 27.8704L65.2191 25.9834V26.1286L65.0726 26.4189L64.926 26.564L64.7795 26.8543V27.1446L64.6329 27.2898L64.4863 27.5801V27.8704L64.3398 28.1607L64.1932 28.3058V28.5962L64.0467 28.8865L63.9001 29.1768V29.3219L63.7536 29.6122V29.9025L63.607 30.1928L63.4604 30.338V30.4831L67.8572 31.9347V31.7895Z" fill="#1D1D1B"/>
<path d="M79.2864 33.9649L79.433 33.8197V33.6746L79.5795 33.5294L79.7261 33.3843V33.2391L79.8726 33.094L80.0192 32.8037V32.6585L80.1658 32.5134L80.3123 32.3682L80.4589 32.2231V32.0779L80.6054 31.9328L80.752 31.7876V31.6424L80.8985 31.4973L81.0451 31.3521L81.1917 31.207V31.0618L81.3382 30.9167L78.114 28.5942H77.9674V28.8845L77.8208 29.0297L77.6743 29.1748L77.5277 29.32L77.3812 29.4652L77.2346 29.6103V29.9006L77.0881 30.0458L76.9415 30.1909L76.7949 30.3361L76.6484 30.4812V30.6264L76.5018 30.9167L76.3553 31.0618L76.2087 31.207V31.3521L76.0622 31.6424L75.9156 31.7876L75.769 31.9328V32.0779L79.2864 34.11V33.9649Z" fill="#1D1D1B"/>
<path d="M76.2104 40.9329L76.3569 40.7877V40.6426V40.3523L76.5035 40.2071V40.062L76.65 39.9168V39.6265V39.4814L76.7966 39.3362V39.1911L76.9432 39.0459V38.7556L77.0897 38.6104V38.4653V38.3201L77.2363 38.175V37.8847L77.3828 37.7395V37.5944L77.5294 37.4492L73.8655 35.8525L73.7189 35.9977L73.5724 36.288V36.4331L73.4258 36.5783V36.8686L73.2792 37.0138V37.1589L73.1327 37.4492V37.5944L72.9861 37.7395V38.0298L72.8396 38.175V38.4653L72.693 38.6104V38.7556L72.5465 39.0459V39.1911V39.3362L72.3999 39.6265V39.7717V39.9168L76.2104 40.9329Z" fill="#1D1D1B"/>
<path d="M84.7101 47.175V47.0299L84.8567 46.8847V46.7396V46.5944V46.4493V46.3041V46.159V46.0138L85.0032 45.8687V45.7235V45.5783V45.4332V45.288L85.1498 45.1429V44.9977V44.8526L82.3652 44.272V44.4171L82.2186 44.5623V44.7074V44.8526V44.9977V45.1429L82.0721 45.288V45.4332V45.5783V45.7235V45.8687V46.0138L81.9255 46.159V46.3041V46.4493V46.5944V46.7396V46.8847V47.0299V47.175V47.3202H84.7101V47.175Z" fill="#1D1D1B"/>
<path d="M212.654 68.9467L202.835 61.3987C201.516 60.3826 200.93 59.0763 200.93 57.7699C200.93 54.4314 204.008 52.9798 206.939 52.9798C209.723 52.9798 212.361 53.9959 212.361 57.1893H212.948L212.801 51.9638H211.189C209.87 51.6735 208.404 51.5283 206.646 51.5283C203.714 51.5283 200.93 52.5444 199.318 55.012C197.559 57.7699 198.145 61.689 200.637 63.8663L210.456 71.2691C211.629 72.2852 212.215 73.5916 212.215 75.1882C212.215 78.9622 208.697 80.5589 205.327 80.5589C201.223 80.5589 198.292 77.9462 198.878 73.7367H198.292C197.852 74.8979 197.706 76.2043 197.706 77.3655C197.706 78.5268 197.706 79.3977 197.852 79.688C199.757 81.4298 203.714 82.0104 206.352 82.0104C210.896 82.0104 214.999 78.8171 214.999 74.1722C214.999 71.8497 214.12 70.1079 212.654 68.9467Z" fill="#1D1D1B"/>
<path d="M162.386 79.9781C161.8 79.5426 161.36 78.8169 161.36 78.0911V55.157C161.36 54.4312 161.8 53.8506 162.386 53.4151C163.266 52.6894 164.145 52.6894 165.317 52.6894V52.2539H154.326V52.6894C155.498 52.6894 156.377 52.6894 157.257 53.4151C157.843 53.9957 158.283 54.5764 158.283 55.3021V78.0911C158.283 79.6878 156.524 80.7039 155.058 80.7039H154.326V81.1393H165.464V80.7039C164.145 80.7039 163.266 80.7039 162.386 79.9781Z" fill="#1D1D1B"/>
<path d="M146.41 77.2213C145.677 76.4956 144.798 75.3343 143.626 73.8828C142.453 72.4313 141.867 71.7055 141.867 71.7055C140.401 69.6734 139.082 68.367 138.056 67.9315C142.6 67.4961 145.677 64.1576 145.677 59.6578C145.677 54.142 140.548 52.1099 135.711 52.1099H123.401V52.5453H124.133C125.599 52.5453 126.918 53.5614 126.918 55.0129V77.9471C126.918 78.6728 126.625 79.2535 126.039 79.8341C125.159 80.5598 124.427 80.5598 123.401 80.5598V80.9953H133.367V80.5598C132.634 80.5598 132.048 80.5598 131.315 80.2695C130.435 79.6889 129.996 78.9632 129.996 77.9471V53.7065H132.634C135.272 53.7065 138.203 53.5614 140.401 55.4484C142.746 57.6257 142.6 61.69 140.987 64.3027C140.548 64.8833 139.815 65.4639 138.789 66.0445C138.056 66.48 135.711 66.6252 131.901 66.6252V67.0606C134.979 67.0606 137.47 71.27 139.229 73.5925C140.988 76.0601 142.16 78.0922 144.798 79.8341C146.996 81.4307 149.781 81.2856 152.419 81.2856V80.8501C149.488 80.705 148.022 79.1083 146.41 77.2213Z" fill="#1D1D1B"/>
<path d="M120.03 52.5447V46.4482C119.737 46.5934 119.151 46.7386 118.125 47.0289C117.099 47.3192 115.78 47.4643 114.168 47.4643H97.6067C95.9945 47.4643 93.21 47.174 91.7444 46.5934V52.6898H92.1841V51.8189C92.1841 50.2222 93.3565 48.9158 94.9687 48.9158H104.202V77.9464C104.202 78.8173 103.909 79.398 103.176 79.9786C102.297 80.8495 101.564 80.8495 100.391 80.8495V81.2849H111.09V80.8495H110.504C108.745 80.8495 107.426 79.5431 107.426 77.8013V48.7707H116.659C118.271 48.7707 119.444 50.0771 119.444 51.6737V52.5447H120.03Z" fill="#1D1D1B"/>
<path d="M182.172 52.1099H170.741V52.5453H171.474C172.939 52.5453 174.258 53.5614 174.258 55.1581V78.0922C174.258 78.818 173.965 79.3986 173.379 79.9792C172.499 80.705 171.767 80.705 170.741 80.705V81.1405H180.853V80.705C180.12 80.705 179.534 80.705 178.801 80.4147C177.922 79.9792 177.482 79.1083 177.336 78.0922V53.5614H182.026C186.129 53.5614 189.793 55.4484 189.793 59.9481C189.793 61.1093 189.647 61.9803 189.5 62.5609C188.914 64.3027 187.888 65.7542 186.422 66.48C184.517 67.7864 181.439 67.9315 179.241 67.3509V67.7864C180.853 68.5121 182.612 68.9476 184.371 68.9476C189.647 68.9476 193.311 65.4639 193.311 60.2384C193.311 54.2872 187.448 52.1099 182.172 52.1099Z" fill="#1D1D1B"/>
<path d="M107.278 84.479C107.278 83.0274 106.252 82.592 104.787 83.3177C93.5017 89.269 84.122 79.5438 75.7683 65.8994L83.6823 55.0129C84.2686 54.2872 85.0014 53.7065 85.7341 53.2711C86.9066 52.5453 87.786 52.5453 88.9584 52.5453V52.1099H78.1132V52.5453C78.846 52.5453 79.5787 52.5453 80.165 53.2711C80.6046 53.8517 80.8978 54.4323 80.3115 55.1581L74.4492 64.0124L68.2938 55.1581C67.8542 54.4323 68.0007 53.9968 68.4404 53.2711C68.8801 52.5453 69.7594 52.5453 70.4922 52.5453V52.1099H59.0607V52.5453H59.647C61.4057 52.5453 63.3109 53.5614 64.3368 55.0129L72.544 66.7703L63.4575 78.3825C61.8453 80.2695 60.5263 80.705 58.1814 80.705V81.1404H68.8801V80.705C68.1473 80.705 67.2679 80.705 66.8283 79.9792C66.3886 79.2534 66.0955 78.6728 66.6817 77.9471L73.863 68.367C87.786 88.3981 107.425 89.9948 107.278 84.479Z" fill="#1D1D1B"/>
<path d="M13.9229 79.6884H6.88819V50.803C6.88819 50.2224 7.03474 49.7869 7.32786 49.2063C8.2072 47.7548 9.2331 47.7548 10.6987 47.7548V47.3193H0V47.7548H0.586229C2.34491 47.7548 3.66393 49.0612 3.66393 50.803V77.6563C3.66393 79.3981 2.19836 80.7045 0.586229 80.7045H0V81.14H20.2249L23.0095 73.3017H22.5698C20.9577 77.5111 18.6128 79.6884 13.9229 79.6884Z" fill="#1D1D1B"/>
<path d="M48.6587 52.6894H49.3915C50.7105 52.6894 51.7364 53.5603 51.7364 54.7215V70.9786C51.7364 76.9299 47.9259 80.5587 41.9171 80.5587C35.6151 80.5587 32.684 76.3493 32.684 70.398V54.7215C32.684 54.1409 32.9771 53.7054 33.4168 53.27C34.1495 52.5442 34.8823 52.6894 35.7617 52.6894V52.2539H26.5286V52.6894C27.4079 52.6894 28.1407 52.6894 28.8735 53.27C29.3132 53.7054 29.6063 54.1409 29.6063 54.7215V70.9786C29.6063 78.2363 34.8823 81.8651 41.7705 81.8651C48.6587 81.8651 53.9348 78.2363 53.9348 70.9786V54.7215C53.9348 54.286 54.0813 53.9957 54.2279 53.7054C54.9607 52.6894 55.84 52.6894 57.0125 52.6894V52.2539H48.6587V52.6894Z" fill="#1D1D1B"/>
</svg>
