<svg width="22" height="21" viewBox="0 0 22 21" fill="none" xmlns="http://www.w3.org/2000/svg">
<path fill-rule="evenodd" clip-rule="evenodd" d="M9.84858 2C5.51393 2 2 5.51393 2 9.84858C2 14.1832 5.51393 17.6972 9.84858 17.6972C14.1832 17.6972 17.6972 14.1832 17.6972 9.84858C17.6972 5.51393 14.1832 2 9.84858 2ZM0 9.84858C0 4.40936 4.40936 0 9.84858 0C15.2878 0 19.6972 4.40936 19.6972 9.84858C19.6972 15.2878 15.2878 19.6972 9.84858 19.6972C4.40936 19.6972 0 15.2878 0 9.84858Z" fill="white"/>
<path fill-rule="evenodd" clip-rule="evenodd" d="M15.9491 15.2675C16.3397 14.877 16.9728 14.877 17.3634 15.2675L20.8347 18.7389C21.2252 19.1294 21.2252 19.7626 20.8347 20.1531C20.4442 20.5436 19.811 20.5436 19.4205 20.1531L15.9491 16.6817C15.5586 16.2912 15.5586 15.658 15.9491 15.2675Z" fill="white"/>
</svg>
